<svg width="886" height="323" viewBox="0 0 886 323" fill="none" xmlns="http://www.w3.org/2000/svg">
<path d="M156.578 65.41L173.868 123.17L184.428 158.28L200.908 213.78C201.128 214.52 201.104 215.313 200.838 216.04L190.018 245.7L179.778 273.66L163.718 317.44L161.828 322.43C161.694 322.783 161.434 322.96 161.048 322.96L142.238 322.75L119.268 253.78L116.718 245.92L104.888 210.52L101.568 200.59L77.8177 128.6L65.1177 90.19L61.1877 78.48C53.5077 53.41 41.8977 20.65 16.1577 8.52999C11.4044 6.38332 6.28105 4.95332 0.787718 4.23999C0.549258 4.20765 0.333317 4.08218 0.187138 3.89102C0.0409598 3.69987 -0.0235516 3.45859 0.00771965 3.21999L0.34772 0.639988C0.38772 0.339988 0.557722 0.189987 0.857722 0.189987L172.688 0.219988C173.128 0.219988 173.338 0.439988 173.318 0.879988L173.178 3.55999C173.158 3.94665 172.954 4.15665 172.568 4.18999C135.208 7.53999 149.548 44.49 156.578 65.41Z" fill="white"/>
<path d="M564.388 5.48L577.858 46.34L606.948 133.85L621.448 177.29L653.918 274.74C657.618 286.44 664.428 302.65 674.148 310.41C680.468 315.46 686.328 317.03 694.118 318.77C694.391 318.83 694.528 319.003 694.528 319.29V321.71C694.528 322.483 694.141 322.87 693.368 322.87L649.018 323L586.288 322.77L528.058 322.72C527.704 322.72 527.528 322.547 527.528 322.2V319.26C527.527 319.129 527.576 319.003 527.664 318.905C527.753 318.807 527.875 318.745 528.008 318.73C548.528 316.77 557.768 306.03 554.728 285.57C553.088 274.523 550.404 263.63 546.678 252.89L533.198 207.6L503.648 108.65C503.551 108.332 503.561 107.991 503.678 107.68L517.658 69.4L532.648 28.3L542.838 0.65C542.903 0.476969 543.019 0.327833 543.171 0.222437C543.323 0.117041 543.503 0.0603815 543.688 0.0599995L561.888 0C562.248 0 562.488 0.166667 562.608 0.5L564.388 5.48Z" fill="white"/>
<path d="M745.918 6.99L756.468 38.77L788.998 136.86L804.238 182.91L823.608 241.43C833.198 272.65 847.008 313.79 885.218 318.63C885.618 318.677 885.801 318.9 885.768 319.3L885.528 322.37C885.518 322.506 885.456 322.633 885.356 322.726C885.256 322.819 885.124 322.87 884.988 322.87L769.778 322.75L713.248 322.71C713.143 322.71 713.04 322.689 712.943 322.648C712.847 322.607 712.761 322.546 712.689 322.471C712.617 322.395 712.561 322.305 712.524 322.207C712.488 322.109 712.472 322.004 712.478 321.9L712.628 319.27C712.636 319.141 712.69 319.019 712.78 318.926C712.869 318.833 712.989 318.774 713.118 318.76C738.648 316.02 741.378 298.49 735.118 277.14C731.311 264.14 728.324 254.23 726.158 247.41L705.868 179.39L684.958 109.26C684.711 108.442 684.739 107.564 685.038 106.76L688.928 96.23L712.368 32.17L723.808 0.669994C723.961 0.243327 724.264 0.0333279 724.718 0.0399945L743.328 0.279994C743.601 0.286661 743.781 0.41666 743.868 0.669994L745.918 6.99Z" fill="white"/>
<path d="M330.578 25.52C329.268 35.99 333.198 50.41 336.208 60.53C340.481 74.9433 344.818 89.34 349.218 103.72L370.198 174.27L372.798 182.83L377.718 199.36L382.138 214.46C382.235 214.785 382.224 215.132 382.108 215.45L343.878 319.85L342.978 322.39C342.858 322.73 342.621 322.903 342.268 322.91L339.288 323L323.868 322.76C323.71 322.758 323.557 322.706 323.43 322.613C323.303 322.52 323.207 322.39 323.158 322.24L297.748 245.93L261.198 136.02L247.518 95.19L230.288 43.71C223.598 24.24 213.678 6.83999 191.648 4.36999C191.268 4.32999 191.091 4.11999 191.118 3.73999L191.278 0.819992C191.304 0.413325 191.518 0.209991 191.918 0.209991H357.728C358.068 0.209991 358.248 0.379992 358.268 0.719992L358.408 3.52999C358.428 4.00332 358.201 4.25332 357.728 4.27999C344.788 5.08999 332.318 11.51 330.578 25.52Z" fill="white"/>
</svg>
