<svg width="95" height="322" viewBox="0 0 95 322" fill="none" xmlns="http://www.w3.org/2000/svg">
<path d="M70.4477 7.64999C92.8377 22.42 99.3877 49.57 92.0177 74.97C83.8277 99.7 65.7177 119.65 45.8477 135.93C45.5944 136.137 45.3577 136.12 45.1377 135.88L42.2577 132.75C42.1634 132.647 42.1095 132.513 42.1058 132.374C42.1022 132.234 42.149 132.098 42.2377 131.99C48.1177 124.59 53.1177 116.68 57.2377 108.26C60.331 102.673 62.6544 96.85 64.2077 90.79C64.3144 90.37 64.1544 90.19 63.7277 90.25C51.3811 92.11 39.4311 90.92 27.8777 86.68C9.88772 78.47 -1.23228 57.89 1.50772 38.34C3.51439 24.0733 11.2544 13.35 24.7277 6.16999C40.4544 -1.27001 55.6944 -0.776676 70.4477 7.64999Z" fill="white"/>
<path d="M53.8277 190.65C43.8744 203.123 36.4411 216.823 31.5277 231.75C31.4923 231.855 31.4848 231.967 31.5058 232.076C31.5268 232.185 31.5757 232.287 31.6479 232.372C31.72 232.457 31.8129 232.523 31.9179 232.563C32.0229 232.603 32.1364 232.615 32.2477 232.6C55.6277 229.2 78.6077 235.18 89.7277 257.98C94.7077 268.18 95.9777 278.757 93.5377 289.71C80.7777 329.21 29.2177 333.05 8.30772 297.36C-6.15228 269.36 2.27771 239.81 20.9877 216.18C28.7544 206.44 37.5577 197.443 47.3977 189.19L50.0077 186.98C50.2744 186.753 50.5244 186.773 50.7577 187.04L53.8277 190.65Z" fill="white"/>
</svg>
